<svg id="visual" viewBox="0 0 900 600" width="900" height="600" xmlns="http://www.w3.org/2000/svg" xmlns:xlink="http://www.w3.org/1999/xlink" version="1.1"><rect x="0" y="0" width="900" height="600" fill="#001220"></rect><defs><linearGradient id="grad1_0" x1="33.3%" y1="0%" x2="100%" y2="100%"><stop offset="20%" stop-color="#001220" stop-opacity="1"></stop><stop offset="80%" stop-color="#001220" stop-opacity="1"></stop></linearGradient></defs><defs><linearGradient id="grad2_0" x1="0%" y1="0%" x2="66.7%" y2="100%"><stop offset="20%" stop-color="#001220" stop-opacity="1"></stop><stop offset="80%" stop-color="#001220" stop-opacity="1"></stop></linearGradient></defs><g transform="translate(900, 0)"><path d="M0 486.7C-58 463.3 -116.1 439.9 -172.6 416.7C-229.1 393.4 -284.1 370.4 -333 333C-382 295.7 -425.1 244.2 -449.7 186.3C-474.3 128.4 -480.5 64.2 -486.7 0L0 0Z" fill="#FBAE3C"></path></g><g transform="translate(0, 600)"><path d="M0 -486.7C57.1 -466.9 114.3 -447.1 177.2 -427.8C240.1 -408.4 308.8 -389.4 344.2 -344.2C379.6 -299 381.8 -227.4 400 -165.7C418.3 -104 452.5 -52 486.7 0L0 0Z" fill="#FBAE3C"></path></g></svg>