<svg id="visual" viewBox="0 0 900 600" width="900" height="600" xmlns="http://www.w3.org/2000/svg" xmlns:xlink="http://www.w3.org/1999/xlink" version="1.1"><path d="M0 151L82 139L164 61L245 109L327 97L409 139L491 79L573 73L655 139L736 85L818 67L900 127L900 0L818 0L736 0L655 0L573 0L491 0L409 0L327 0L245 0L164 0L82 0L0 0Z" fill="#00cc8e"></path><path d="M0 253L82 235L164 103L245 181L327 145L409 193L491 139L573 163L655 199L736 133L818 163L900 175L900 125L818 65L736 83L655 137L573 71L491 77L409 137L327 95L245 107L164 59L82 137L0 149Z" fill="#00b98a"></path><path d="M0 385L82 403L164 355L245 319L327 361L409 325L491 259L573 271L655 409L736 241L818 259L900 367L900 173L818 161L736 131L655 197L573 161L491 137L409 191L327 143L245 179L164 101L82 233L0 251Z" fill="#00a784"></path><path d="M0 559L82 481L164 487L245 475L327 469L409 505L491 487L573 535L655 481L736 487L818 499L900 481L900 365L818 257L736 239L655 407L573 269L491 257L409 323L327 359L245 317L164 353L82 401L0 383Z" fill="#00957c"></path><path d="M0 601L82 601L164 601L245 601L327 601L409 601L491 601L573 601L655 601L736 601L818 601L900 601L900 479L818 497L736 485L655 479L573 533L491 485L409 503L327 467L245 473L164 485L82 479L0 557Z" fill="#038373"></path></svg>