<svg id="visual" viewBox="0 0 900 600" width="900" height="600" xmlns="http://www.w3.org/2000/svg" xmlns:xlink="http://www.w3.org/1999/xlink" version="1.1"><rect width="900" height="600" fill="#931F1F"></rect><g><g transform="translate(85 484)"><path d="M82.4 -30.7C93.5 7.2 79.8 49.2 48.2 73.9C16.6 98.6 -33 106.1 -62 85.1C-91 64.1 -99.5 14.5 -85.7 -27.1C-71.9 -68.8 -36 -102.5 -0.1 -102.5C35.7 -102.5 71.4 -68.6 82.4 -30.7Z" stroke="#F7760E" fill="none" stroke-width="20"></path></g><g transform="translate(238 230)"><path d="M59.2 -18C66.8 3.9 56 33 35.5 47.6C15 62.2 -15.1 62.2 -34.5 48C-53.9 33.8 -62.5 5.3 -55 -16.6C-47.4 -38.5 -23.7 -53.8 1.1 -54.1C25.9 -54.5 51.7 -39.9 59.2 -18Z" stroke="#F7760E" fill="none" stroke-width="20"></path></g><g transform="translate(863 33)"><path d="M55.8 -18.5C64.2 7.6 57.2 38.4 36.6 54.3C15.9 70.3 -18.4 71.4 -39.3 55.9C-60.2 40.3 -67.6 8 -58.8 -18.8C-50 -45.5 -25 -66.6 -0.6 -66.4C23.7 -66.2 47.5 -44.7 55.8 -18.5Z" stroke="#F7760E" fill="none" stroke-width="20"></path></g></g></svg>