<svg id="visual" viewBox="0 0 900 600" width="900" height="600" xmlns="http://www.w3.org/2000/svg" xmlns:xlink="http://www.w3.org/1999/xlink" version="1.1"><path d="M0 277L13.7 256C27.3 235 54.7 193 82 172C109.3 151 136.7 151 163.8 143C191 135 218 119 245.2 131C272.3 143 299.7 183 327 184C354.3 185 381.7 147 409 137C436.3 127 463.7 145 491 161C518.3 177 545.7 191 573 180C600.3 169 627.7 133 654.8 117C682 101 709 105 736.2 117C763.3 129 790.7 149 818 157C845.3 165 872.7 161 886.3 159L900 157L900 0L886.3 0C872.7 0 845.3 0 818 0C790.7 0 763.3 0 736.2 0C709 0 682 0 654.8 0C627.7 0 600.3 0 573 0C545.7 0 518.3 0 491 0C463.7 0 436.3 0 409 0C381.7 0 354.3 0 327 0C299.7 0 272.3 0 245.2 0C218 0 191 0 163.8 0C136.7 0 109.3 0 82 0C54.7 0 27.3 0 13.7 0L0 0Z" fill="#6198ff"></path><path d="M0 343L13.7 333C27.3 323 54.7 303 82 291C109.3 279 136.7 275 163.8 264C191 253 218 235 245.2 247C272.3 259 299.7 301 327 302C354.3 303 381.7 263 409 248C436.3 233 463.7 243 491 252C518.3 261 545.7 269 573 256C600.3 243 627.7 209 654.8 196C682 183 709 191 736.2 213C763.3 235 790.7 271 818 286C845.3 301 872.7 295 886.3 292L900 289L900 155L886.3 157C872.7 159 845.3 163 818 155C790.7 147 763.3 127 736.2 115C709 103 682 99 654.8 115C627.7 131 600.3 167 573 178C545.7 189 518.3 175 491 159C463.7 143 436.3 125 409 135C381.7 145 354.3 183 327 182C299.7 181 272.3 141 245.2 129C218 117 191 133 163.8 141C136.7 149 109.3 149 82 170C54.7 191 27.3 233 13.7 254L0 275Z" fill="#3c80ff"></path><path d="M0 487L13.7 472C27.3 457 54.7 427 82 422C109.3 417 136.7 437 163.8 454C191 471 218 485 245.2 481C272.3 477 299.7 455 327 442C354.3 429 381.7 425 409 434C436.3 443 463.7 465 491 470C518.3 475 545.7 463 573 459C600.3 455 627.7 459 654.8 457C682 455 709 447 736.2 442C763.3 437 790.7 435 818 440C845.3 445 872.7 457 886.3 463L900 469L900 287L886.3 290C872.7 293 845.3 299 818 284C790.7 269 763.3 233 736.2 211C709 189 682 181 654.8 194C627.7 207 600.3 241 573 254C545.7 267 518.3 259 491 250C463.7 241 436.3 231 409 246C381.7 261 354.3 301 327 300C299.7 299 272.3 257 245.2 245C218 233 191 251 163.8 262C136.7 273 109.3 277 82 289C54.7 301 27.3 321 13.7 331L0 341Z" fill="#0066ff"></path><path d="M0 529L13.7 527C27.3 525 54.7 521 82 523C109.3 525 136.7 533 163.8 538C191 543 218 545 245.2 539C272.3 533 299.7 519 327 515C354.3 511 381.7 517 409 526C436.3 535 463.7 547 491 546C518.3 545 545.7 531 573 522C600.3 513 627.7 509 654.8 510C682 511 709 517 736.2 524C763.3 531 790.7 539 818 544C845.3 549 872.7 551 886.3 552L900 553L900 467L886.3 461C872.7 455 845.3 443 818 438C790.7 433 763.3 435 736.2 440C709 445 682 453 654.8 455C627.7 457 600.3 453 573 457C545.7 461 518.3 473 491 468C463.7 463 436.3 441 409 432C381.7 423 354.3 427 327 440C299.7 453 272.3 475 245.2 479C218 483 191 469 163.8 452C136.7 435 109.3 415 82 420C54.7 425 27.3 455 13.7 470L0 485Z" fill="#0059dd"></path><path d="M0 601L13.7 601C27.3 601 54.7 601 82 601C109.3 601 136.7 601 163.8 601C191 601 218 601 245.2 601C272.3 601 299.7 601 327 601C354.3 601 381.7 601 409 601C436.3 601 463.7 601 491 601C518.3 601 545.7 601 573 601C600.3 601 627.7 601 654.8 601C682 601 709 601 736.2 601C763.3 601 790.7 601 818 601C845.3 601 872.7 601 886.3 601L900 601L900 551L886.3 550C872.7 549 845.3 547 818 542C790.7 537 763.3 529 736.2 522C709 515 682 509 654.8 508C627.7 507 600.3 511 573 520C545.7 529 518.3 543 491 544C463.7 545 436.3 533 409 524C381.7 515 354.3 509 327 513C299.7 517 272.3 531 245.2 537C218 543 191 541 163.8 536C136.7 531 109.3 523 82 521C54.7 519 27.3 523 13.7 525L0 527Z" fill="#004cbb"></path></svg>